<svg aria-hidden="true" style="position:absolute;width:0;height:0;overflow:hidden" xmlns="http://www.w3.org/2000/svg">
  <defs>
    <symbol id="email-black" viewBox="0 0 64 64">
      <path d="M53.333 10.667H10.666c-2.933 0-5.307 2.4-5.307 5.333l-.027 32c0 2.933 2.4 5.333 5.333 5.333h42.667c2.933 0 5.333-2.4 5.333-5.333V16c0-2.933-2.4-5.333-5.333-5.333zM52.267 22 33.414 33.787a2.699 2.699 0 0 1-2.827 0L11.734 22a2.282 2.282 0 0 1-1.067-1.92c0-1.787 1.947-2.853 3.467-1.92l17.867 11.173L49.868 18.16c1.52-.933 3.467.133 3.467 1.92 0 .773-.4 1.493-1.067 1.92z"/>
    </symbol>
    <symbol id="icon-check" viewBox="0 0 64 64">
      <path fill="#fff" stroke="#fff" stroke-width=".985" style="fill:var(--color1, #fff);stroke:var(--color1, #fff)" d="m9.635 30.777-.339-.323-5.087 4.819 17.924 17.099L59.79 16.448l-5.054-4.821L22.133 42.7 9.635 30.777z"/>
    </symbol>
    <symbol id="icon-send" viewBox="0 0 64 64">
      <path fill="#fff" style="fill:var(--color1, #fff)" d="M64 0 0 36l20.453 7.575L52 14 28.005 46.372l.019.007-.024-.007V64l11.47-13.382L54 56 64 0z"/>
    </symbol>
    <symbol id="person-black" viewBox="0 0 64 64">
      <path d="M32 32c5.893 0 10.667-4.773 10.667-10.667S37.894 10.666 32 10.666c-5.893 0-10.667 4.773-10.667 10.667S26.106 32 32 32zm0 5.333c-7.12 0-21.333 3.573-21.333 10.667v2.667c0 1.467 1.2 2.667 2.667 2.667h37.333c1.467 0 2.667-1.2 2.667-2.667V48c0-7.093-14.213-10.667-21.333-10.667z"/>
    </symbol>
    <symbol id="phone-black" viewBox="0 0 64 64">
      <path d="m49.764 39.547-6.535-.746a5.12 5.12 0 0 0-4.22 1.467l-4.734 4.735a38.714 38.714 0 0 1-16.957-16.957l4.76-4.76a5.123 5.123 0 0 0 1.467-4.22l-.746-6.484a5.15 5.15 0 0 0-5.12-4.554h-4.451c-2.908 0-5.326 2.419-5.146 5.326C9.446 35.328 27.02 52.877 48.968 54.24c2.907.18 5.326-2.239 5.326-5.146v-4.451c.026-2.599-1.93-4.786-4.529-5.095z"/>
    </symbol>
    <symbol id="close" viewBox="0 0 64 64">
      <path d="m53.333 14.606-3.94-3.94-15.616 15.616-15.616-15.616-3.94 3.94 15.616 15.616-15.616 15.616 3.94 3.94 15.616-15.616 15.616 15.616 3.94-3.94-15.616-15.616 15.616-15.616z"/>
    </symbol>
    <symbol id="clock" viewBox="0 0 64 64">
      <path fill="#212121" style="fill:var(--color2, #212121)" d="M62.593 30.602C62.589 13.697 48.883-.004 31.977 0S1.371 13.711 1.375 30.616a30.609 30.609 0 0 0 21.299 29.152c.121.038.247.058.374.057.241 0 .478-.065.685-.188.27-.16.472-.414.566-.713l7.73-24.5a3.826 3.826 0 0 0-.04-7.653 3.763 3.763 0 0 0-1.64.383L20.137 16.941a1.276 1.276 0 0 0-1.803 1.803l10.207 10.218a3.753 3.753 0 0 0 1.073 4.618l-7.365 23.346C7.693 51.564.24 35.418 5.602 20.863S27.11-1.146 41.665 4.216s22.009 21.508 16.647 36.063a28.092 28.092 0 0 1-14.924 15.947l-.796-3.749a1.275 1.275 0 0 0-2.097-.687l-7.674 6.851a1.276 1.276 0 0 0 .461 2.169l9.797 3.127a1.275 1.275 0 0 0 1.638-1.479l-.782-3.678a30.51 30.51 0 0 0 18.658-28.178zm-30.609-1.275a1.275 1.275 0 1 1 0 2.55 1.275 1.275 0 0 1 0-2.55zm4.201 29.728 4.368-3.897 1.206 5.681-5.574-1.784z"/>
      <path fill="#2196f3" style="fill:var(--color3, #2196f3)" d="M30.709 6.37v2.551a1.275 1.275 0 1 0 2.55 0V6.37a1.275 1.275 0 0 0-2.55 0zM7.752 29.327a1.275 1.275 0 1 0 0 2.55h2.551a1.275 1.275 0 1 0 0-2.55H7.752zM56.216 31.878a1.275 1.275 0 1 0 0-2.55h-2.551a1.275 1.275 0 0 0 0 2.55h2.551z"/>
    </symbol>
    <symbol id="diagram" viewBox="0 0 64 64">
      <path fill="#2196f3" style="fill:var(--color3, #2196f3)" d="M29.851 29.929h2.132v9.595h-2.132v-9.595zM38.38 34.194h2.132v5.331H38.38v-5.331zM21.322 37.392h2.132v2.132h-2.132v-2.132zM14.926 36.326h2.132v3.198h-2.132v-3.198z"/>
      <path fill="#212121" style="fill:var(--color2, #212121)" d="M3.198 56.582h51.173a3.198 3.198 0 0 0 3.198-3.198V49.12a3.198 3.198 0 0 0-3.198-3.198h-1.066V19.335l6.056-5.737a3.216 3.216 0 1 0-.409-5.53 3.217 3.217 0 0 0-1.085 4.004l-4.563 4.325v-2.46a3.198 3.198 0 0 0-3.198-3.198H7.462a3.198 3.198 0 0 0-3.198 3.198V45.92H3.198A3.198 3.198 0 0 0 0 49.118v4.264a3.198 3.198 0 0 0 3.198 3.198zm57.57-46.909a1.066 1.066 0 1 1 0 2.131 1.066 1.066 0 0 1 0-2.131zM6.397 13.938c0-.589.477-1.066 1.066-1.066h42.644c.589 0 1.066.477 1.066 1.066v4.477l-2.132 2.026V16.07c0-.589-.477-1.066-1.066-1.066H9.595c-.589 0-1.066.477-1.066 1.066v26.653c0 .589.477 1.066 1.066 1.066h38.38c.589 0 1.066-.477 1.066-1.066V23.374l2.132-2.02v24.567H6.396V13.938zm9.595 13.859a3.197 3.197 0 1 0 2.214 5.496l3.706 1.859c.431.215.953.114 1.273-.245l7.878-8.863 7.744 5.803c.415.311.995.278 1.372-.079l6.73-6.375v16.262H10.661v-24.52h36.248v5.321l-7.543 7.143-7.809-5.854a1.066 1.066 0 0 0-1.436.144l-7.986 8.985-2.985-1.493c.022-.128.035-.257.041-.387a3.198 3.198 0 0 0-3.198-3.198zm1.066 3.198a1.066 1.066 0 1 1-2.131 0 1.066 1.066 0 0 1 2.131 0zm6.396 17.058h10.661v1.066c0 .589-.477 1.066-1.066 1.066H24.52a1.066 1.066 0 0 1-1.066-1.066v-1.066zM2.132 49.119c0-.589.477-1.066 1.066-1.066h18.124v1.066a3.198 3.198 0 0 0 3.198 3.198h8.529a3.198 3.198 0 0 0 3.198-3.198v-1.066h18.124c.589 0 1.066.477 1.066 1.066v4.264c0 .589-.477 1.066-1.066 1.066H3.198a1.066 1.066 0 0 1-1.066-1.066v-4.264z"/>
    </symbol>
    <symbol id="antenna" viewBox="0 0 64 64">
      <path fill="#212121" style="fill:var(--color2, #212121)" d="M61.546 44.195 44.66 27.185l1.874-9.231a4.26 4.26 0 0 0 1.517.291h.013a4.319 4.319 0 1 0-4.018-2.872l-9.92 1.211L17.945.318a1.063 1.063 0 0 0-.753-.32c-.28.001-.548.113-.747.31L13.42 3.316a1.067 1.067 0 0 0 0 1.508l1.628 1.651a29.885 29.885 0 0 0 5.039 35.326.99.99 0 0 0 .292.195 6.276 6.276 0 0 0-.105 1.094v12.373h-12.8a5.34 5.34 0 0 0-5.333 5.333v2.133c0 .589.478 1.067 1.067 1.067h49.067c.589 0 1.067-.478 1.067-1.067v-2.133a5.34 5.34 0 0 0-5.333-5.333h-12.8v-5.484c2.005.421 4.048.635 6.097.64a29.697 29.697 0 0 0 14.08-3.567l1.636 1.646c.199.203.469.318.753.32.28-.001.548-.113.747-.31l3.025-3.008a1.067 1.067 0 0 0 0-1.508zM46.56 12.466a2.134 2.134 0 1 1 1.504 3.646h-.006a2.133 2.133 0 0 1-1.493-3.646h-.004zm-2.511 7.009-1.197 5.891-2.351-2.365 3.548-3.526zm-1.212-1.803-3.84 3.818-2.971-2.987 6.811-.831zM48.008 57.6a3.2 3.2 0 0 1 3.2 3.2v1.067H4.275V60.8a3.2 3.2 0 0 1 3.2-3.2h40.533zm-14.933-4.267v2.133H22.408v-2.133h10.667zM22.408 51.2v-8.107c0-2.588 2.393-4.693 5.333-4.693s5.333 2.106 5.333 4.693V51.2H22.407zm12.8-3.392v-4.715c0-3.764-3.349-6.827-7.467-6.827a7.6 7.6 0 0 0-6.562 3.572 27.737 27.737 0 0 1-4.557-31.774l37.204 37.417a27.643 27.643 0 0 1-18.618 2.326zm22.578-1.367L15.672 4.079l1.509-1.504 15.87 15.96c.007 0 .012.014.019.019l26.229 26.383-1.514 1.504z"/>
      <path fill="#2196f3" style="fill:var(--color3, #2196f3)" d="M27.751 40.533h-.01a3.2 3.2 0 0 0-.01 6.4h.01a3.2 3.2 0 0 0 .01-6.4zm.747 3.957a1.067 1.067 0 1 1-.756-1.823 1.067 1.067 0 0 1 .747 1.823h.01z"/>
    </symbol>
    <symbol id="astronaut" viewBox="0 0 64 64">
      <path fill="#2196f3" style="fill:var(--color3, #2196f3)" d="M63.948 9.048a1.067 1.067 0 0 0-.861-.725l-3.821-.556-1.71-3.462c-.358-.73-1.554-.73-1.913 0l-1.71 3.462-3.821.556a1.066 1.066 0 0 0-.592 1.818l2.766 2.696-.653 3.806c-.068.4.096.804.423 1.043.332.241.765.271 1.124.081l3.418-1.797 3.418 1.797a1.072 1.072 0 0 0 1.124-.081c.328-.239.493-.643.423-1.043l-.653-3.806 2.766-2.695a1.07 1.07 0 0 0 .27-1.093zm-4.926 2.654a1.064 1.064 0 0 0-.306.944l.382 2.228-2.001-1.052a1.066 1.066 0 0 0-.994 0l-2.001 1.052.382-2.228a1.068 1.068 0 0 0-.306-.944l-1.62-1.579 2.238-.325c.348-.05.648-.269.803-.584L56.6 7.187l1.001 2.027c.156.315.456.533.803.584l2.238.325-1.618 1.579zM52.267 41.044h-2.133v2.133h2.133v-2.133zM52.267 45.311h-2.133v2.133h2.133v-2.133zM54.4 43.178h-2.133v2.133H54.4v-2.133zM50.134 43.178h-2.133v2.133h2.133v-2.133zM44.8 52.778h-2.133v2.133H44.8v-2.133zM44.8 57.045h-2.133v2.133H44.8v-2.133zM46.934 54.911h-2.133v2.133h2.133v-2.133zM42.667 54.911h-2.133v2.133h2.133v-2.133zM32 48.511h-2.133v2.133H32v-2.133zM32 52.778h-2.133v2.133H32v-2.133zM34.133 50.645H32v2.133h2.133v-2.133zM29.867 50.645h-2.133v2.133h2.133v-2.133zM11.733 12.244H9.6v2.133h2.133v-2.133zM11.733 16.511H9.6v2.133h2.133v-2.133zM13.866 14.377h-2.133v2.133h2.133v-2.133zM9.6 14.377H7.467v2.133H9.6v-2.133z"/>
      <path fill="#212121" style="fill:var(--color2, #212121)" d="M49.43 28.319a3.545 3.545 0 0 0-2.377-1.409 3.549 3.549 0 0 0-2.679.704l-2.505 1.92-3.795 2.834-2.716-1.082c4.843-2.173 8.227-7.017 8.227-12.64 0-7.646-6.245-13.867-13.922-13.867S15.741 11 15.741 18.646c0 2.771.829 5.348 2.24 7.517l-5.528-.048h-.01c-.017 0-.031.009-.047.01a1.036 1.036 0 0 0-.31.062c-.026.01-.052.015-.077.027-.013.005-.026.006-.038.013l-6.466 3.192-.002.001-3.787 1.821a.881.881 0 0 0-.126.07 3.562 3.562 0 0 0 .915 6.369 3.565 3.565 0 0 0 2.757-.257l2.776-1.476 4.528-2.338 2.714-.016L4.397 44.424l-.003.002-2.677 2.667a3.3 3.3 0 0 0-.98 2.355c0 .89.348 1.727.98 2.357.65.646 1.504.971 2.358.971a3.34 3.34 0 0 0 2.361-.971l2.628-2.618 3.482-2.599 1.802 1.794-3.523 3.508-.003.002-2.677 2.667a3.296 3.296 0 0 0-.98 2.355c0 .89.348 1.727.98 2.357.65.646 1.505.971 2.36.971s1.71-.324 2.361-.971l6.963-6.933.002-.003 2.019-2-.008-.008c.013-.013.031-.017.044-.031L32.218 38.98l6.942.988a.947.947 0 0 0 .524-.066c.035-.013.066-.03.099-.047.038-.019.079-.03.115-.054l6.427-4.267c.023-.016.036-.042.059-.059.026-.02.058-.029.081-.051l2.543-2.382a3.558 3.558 0 0 0 .424-4.724zM4.261 35.54c-.347.186-.74.223-1.117.103a1.428 1.428 0 0 1-.424-2.52l2.627-1.264.898 2.625-1.984 1.055zm6.994-3.655-3.097 1.6-.878-2.567 4.054-2.001-.079 2.968zm30.199-13.241c0 1.837-.438 3.569-1.198 5.119l-8.363-3.798a3.724 3.724 0 0 0-1.576-2.776l2.928-9.721c4.755 1.513 8.209 5.949 8.209 11.176zm-23.578 0c0-6.47 5.289-11.734 11.789-11.734.506 0 1 .043 1.49.104l-2.864 9.507c-.038-.001-.075-.012-.114-.012-2.065 0-3.745 1.675-3.745 3.733s1.68 3.733 3.745 3.733c1.389 0 2.589-.767 3.236-1.889l7.725 3.509c-2.149 2.893-5.59 4.78-9.473 4.78-6.5 0-11.789-5.264-11.789-11.734zm11.913 1.6c0 .882-.723 1.6-1.612 1.6s-1.612-.718-1.612-1.6c0-.882.723-1.6 1.612-1.6s1.612.718 1.612 1.6zM4.93 50.292a1.217 1.217 0 0 1-1.709.001 1.189 1.189 0 0 1 0-1.689l1.924-1.917 1.702 1.695-1.918 1.909zm6.427 7.467a1.217 1.217 0 0 1-1.71.001 1.189 1.189 0 0 1 0-1.689l1.925-1.918 1.704 1.695-1.919 1.91zm6.964-6.937-.003.002-3.53 3.52-1.704-1.695 3.526-3.51v-.001l.003-.002c.08-.08.13-.176.179-.271.014-.028.041-.051.052-.08.033-.082.038-.171.051-.257.006-.049.028-.095.028-.145 0-.072-.026-.141-.041-.211-.013-.064-.013-.129-.037-.191-.041-.1-.11-.189-.182-.275-.02-.023-.028-.053-.05-.076h-.001l-.002-.004-3.214-3.2c-.034-.034-.078-.048-.116-.077a.989.989 0 0 0-.174-.115.987.987 0 0 0-.187-.065 1.013 1.013 0 0 0-.206-.039 1.02 1.02 0 0 0-.191.01.982.982 0 0 0-.208.041.934.934 0 0 0-.189.09c-.04.022-.084.03-.122.058l-3.547 2.648-1.802-1.794 4.798-4.772 8.721 8.577-1.855 1.838zm13.637-14.034c-.031-.004-.06.008-.091.005a1.046 1.046 0 0 0-.23.014.983.983 0 0 0-.369.137.99.99 0 0 0-.166.123c-.026.022-.056.033-.08.059l-9.397 10.291-8.656-8.513 5.666-5.636a1.067 1.067 0 0 0-.76-1.822v-.001l-4.437.027.056-3.215 6.208.053a13.897 13.897 0 0 0 9.963 4.202c.875 0 1.728-.091 2.559-.245.08.064.159.129.259.17l4.819 1.92.661 3.287-6.005-.854zm8.083.357-.626-3.116 2.893-2.16 1.893 2.513-4.16 2.763zm7.507-5.662-1.676 1.57-1.862-2.473 1.663-1.275c.31-.239.702-.336 1.086-.286.386.054.727.256.96.569a1.428 1.428 0 0 1-.171 1.894z"/>
      <path fill="#212121" style="fill:var(--color2, #212121)" d="m27.204 37.088-4.286-4.267a1.065 1.065 0 0 0-1.505 0l-4.285 4.267a1.07 1.07 0 0 0 0 1.512l4.285 4.267a1.065 1.065 0 0 0 1.505 0l4.286-4.267a1.067 1.067 0 0 0 0-1.512zm-5.038 3.518-2.773-2.762 2.773-2.762 2.774 2.762-2.774 2.762zM34.328 10.142l-.515 2.072c.142.035 3.475.903 3.475 4.298h2.133c0-4.034-3.331-5.931-5.093-6.369zM39.422 18.644h-2.133v2.133h2.133v-2.133z"/>
    </symbol>
    <symbol id="company1" viewBox="0 0 113 64">
      <path d="m40.533 7.467 7.475 7.076-13.875-.008v34.333H70.4V35.741l7.467 7.069V7.467H40.534zM70.072 34.91 48.878 14.846h21.194V34.91zm-6.581 8.936H39.872V20.755h1.67v21.527h21.95v1.563zM45.45 53.439h.729l-1.271 2.396v1.396h-.661v-1.396l-1.273-2.396h.732l.872 1.797.872-1.797zm1.096 3.792.307-.883h1.469l.31.883h.687l-1.435-3.792h-.591l-1.432 3.792h.685zm1.041-2.987.549 1.573h-1.099l.55-1.573zm3.474 1.482a.865.865 0 0 0-.143.482c0 .319.112.579.336.779.226.198.526.297.901.297s.698-.102.969-.305l.214.253h.734l-.557-.659c.219-.299.328-.681.328-1.148h-.549c0 .255-.053.487-.159.695l-.732-.865.258-.188c.182-.132.313-.264.393-.396a.835.835 0 0 0 .12-.437c0-.24-.089-.44-.266-.602-.175-.163-.401-.245-.677-.245-.306 0-.549.087-.729.26-.181.172-.271.406-.271.703 0 .121.029.247.086.378.059.13.162.288.31.474-.281.201-.47.376-.565.523zm1.711.838a.968.968 0 0 1-.599.214c-.189 0-.34-.055-.453-.164s-.169-.252-.169-.427c0-.203.104-.384.313-.542l.081-.057.828.977zm-.679-1.68c-.179-.221-.268-.404-.268-.549 0-.127.036-.232.109-.315s.171-.125.294-.125c.115 0 .209.035.284.107a.331.331 0 0 1 .112.253.47.47 0 0 1-.161.367l-.081.065-.289.198zm6.172 2.06c-.26.226-.607.338-1.039.338-.302 0-.569-.071-.799-.214-.229-.144-.406-.348-.531-.612s-.19-.57-.195-.919v-.354c0-.358.063-.673.19-.945s.308-.483.544-.63c.238-.148.512-.221.823-.221.418 0 .755.114 1.01.341s.404.549.445.964h-.656c-.031-.273-.111-.469-.24-.589-.127-.122-.313-.182-.56-.182-.286 0-.507.105-.661.315-.153.208-.231.515-.234.919v.336c0 .41.073.722.219.938.148.215.363.323.646.323.259 0 .453-.058.583-.175s.213-.31.247-.581h.656c-.038.404-.188.72-.448.948zm3.872-.531c.129-.281.193-.608.193-.979v-.211a2.295 2.295 0 0 0-.198-.971 1.45 1.45 0 0 0-.555-.641c-.238-.149-.511-.224-.82-.224s-.583.075-.823.227a1.477 1.477 0 0 0-.555.648c-.13.283-.195.609-.195.979v.214c.002.363.068.683.198.961a1.5 1.5 0 0 0 .557.643c.241.149.516.224.823.224.311 0 .585-.075.823-.224.24-.151.424-.366.552-.646zm-.706-2.143c.16.224.24.546.24.966v.198c0 .427-.079.752-.237.974-.156.222-.38.333-.672.333a.788.788 0 0 1-.677-.341c-.161-.227-.242-.549-.242-.966v-.219c.004-.408.085-.723.245-.945a.78.78 0 0 1 .669-.336c.292 0 .517.112.674.336z"/>
    </symbol>
    <symbol id="company2" viewBox="0 0 113 64">
      <path d="M53.455 6.33a9.12 9.12 0 0 1 .85.052c1.272.09 2.535.28 3.778.57V3.898a22.458 22.458 0 0 0-3.899-.621 31.679 31.679 0 0 0-1.576-.076h-.456c-2.64.01-5.268.349-7.825 1.009a31.69 31.69 0 0 0-8.303 3.377v30.29a33.733 33.733 0 0 1 7.914-3.084 34.535 34.535 0 0 1 6.643-1.02h.089c.375-.019.75-.03 1.136-.033v-3.103a36.635 36.635 0 0 0-8.635 1.147 40.814 40.814 0 0 0-3.001.89l-1.079.366V9.423l.461-.222a30.17 30.17 0 0 1 11.217-2.862.785.785 0 0 1 .097 0c.429-.022.861-.033 1.285-.033h.486c.224.005.448.011.672.024h.146zm5.375 3.122c.677.052 1.379.076 2.089.076a33.586 33.586 0 0 0 8.227-1.055 33.92 33.92 0 0 0 7.912-3.087v29.75a31.792 31.792 0 0 1-8.306 3.377 31.887 31.887 0 0 1-7.825 1.006c-2 .016-3.994-.219-5.936-.7V8.876c.459.106.931.203 1.411.285a26.23 26.23 0 0 0 2.429.29zm15.14.231-1.079.363c-.993.334-1.994.632-3.001.898a36.559 36.559 0 0 1-8.967 1.15c-.704 0-1.352-.019-1.978-.06l-.861-.057v24.295l.739.065c.685.06 1.392.09 2.105.09a28.68 28.68 0 0 0 7.062-.914 29.65 29.65 0 0 0 5.518-1.983l.461-.222V9.683zM38.12 48.227a1.593 1.593 0 0 0-1.201-.486 1.789 1.789 0 0 0-.693.13 1.56 1.56 0 0 0-.888.897 1.747 1.747 0 0 0-.124.67v4.047c-.01.285.045.569.159.83.095.207.233.392.405.542.162.136.352.234.556.288.197.055.4.084.604.084a1.52 1.52 0 0 0 .653-.141c.202-.089.386-.216.54-.374.15-.157.27-.341.353-.542.087-.204.131-.424.13-.646v-.453h-1.058v.361a.947.947 0 0 1-.062.361.644.644 0 0 1-.154.228.654.654 0 0 1-.221.117.722.722 0 0 1-.221.038.537.537 0 0 1-.496-.217.951.951 0 0 1-.14-.542v-3.773a1.28 1.28 0 0 1 .13-.605.53.53 0 0 1 .518-.244.56.56 0 0 1 .472.227.86.86 0 0 1 .175.542v.35h1.047v-.412a1.907 1.907 0 0 0-.13-.708 1.668 1.668 0 0 0-.353-.57zM44.404 48.18a1.883 1.883 0 0 0-1.203-.445 1.838 1.838 0 0 0-1.19.445 1.67 1.67 0 0 0-.41.567 1.886 1.886 0 0 0-.154.784v3.882c-.007.273.045.544.154.795.096.209.236.394.41.542.162.15.352.266.559.342a1.815 1.815 0 0 0 1.834-.342 1.64 1.64 0 0 0 .399-.542 1.87 1.87 0 0 0 .154-.795v-3.882a1.886 1.886 0 0 0-.154-.784 1.751 1.751 0 0 0-.399-.567zm-.494 5.233a.69.69 0 0 1-.211.562.776.776 0 0 1-.996 0 .702.702 0 0 1-.211-.562v-3.882a.69.69 0 0 1 .211-.562.776.776 0 0 1 .996 0 .702.702 0 0 1 .211.562v3.882zM52.658 55.146v-7.348h-1.017l-1.336 3.89h-.019l-1.347-3.89h-1.007v7.348h1.05v-4.47h.019l1.028 3.16h.523l1.036-3.16h.019v4.47h1.05zM58.622 48.313a1.461 1.461 0 0 0-.594-.401 2.342 2.342 0 0 0-.761-.114h-1.56v7.348h1.047v-2.87h.54c.327.015.652-.054.944-.201a1.52 1.52 0 0 0 .575-.562 1.75 1.75 0 0 0 .24-.64c.041-.276.06-.556.057-.835a4.21 4.21 0 0 0-.102-1.05 1.565 1.565 0 0 0-.386-.675zm-.54 2.241a.943.943 0 0 1-.097.383.592.592 0 0 1-.27.258 1.075 1.075 0 0 1-.494.092h-.478v-2.498h.54c.163-.008.325.024.472.092a.599.599 0 0 1 .246.271c.057.129.088.268.092.41v.488c0 .171.011.347 0 .505h-.011zM63.582 47.798h-.858l-1.619 7.348h1.047l.308-1.579h1.427l.308 1.579h1.047l-1.66-7.348zm-.967 4.768.515-2.664h.019l.513 2.664h-1.047zM70.346 52.225h-.019l-1.581-4.427h-1.007v7.348h1.047v-4.419h.022l1.6 4.419h.985v-7.348h-1.047v4.427zM76.744 47.798l-.842 2.921h-.022l-.842-2.921h-1.109l1.438 4.242v3.106h1.047V52.04l1.438-4.242h-1.109zM35.2 57.221h.505v1.416h.343v-1.416h.502v-.29h-1.349v.29zM39.442 56.931l-.661 1.706h.364l.14-.388h.68l.146.388h.372l-.677-1.706h-.364zm-.054 1.03.232-.632.232.632h-.464zM43.635 58.008h.394v.22a.657.657 0 0 1-.405.144.427.427 0 0 1-.361-.163.718.718 0 0 1-.127-.445c0-.38.165-.57.491-.57a.365.365 0 0 1 .386.271l.337-.065c-.073-.334-.313-.502-.723-.502a.856.856 0 0 0-.596.22.832.832 0 0 0-.246.656.928.928 0 0 0 .219.64.832.832 0 0 0 .648.249c.267.007.526-.09.723-.271v-.673h-.739v.287zM47.917 56.931h-.345v1.706h1.195v-.29h-.85v-1.416zM51.539 56.931h-.345v1.706h.345v-1.706zM55.079 58.07l-.699-1.139h-.335v1.706h.321v-1.115l.685 1.115h.343v-1.706h-.316v1.139zM58.279 57.885h.85v-.29h-.85v-.374h.915v-.29h-1.26v1.706h1.295v-.29h-.95v-.461zM66.04 57.603h-.672v-.673h-.343v1.706h.343v-.746h.672v.746h.343V56.93h-.343v.673zM69.259 57.885h.853v-.29h-.853v-.374h.917v-.29h-1.26v1.706h1.293v-.29h-.95v-.461zM73.625 57.885c.297-.046.448-.203.448-.475a.41.41 0 0 0-.168-.38.958.958 0 0 0-.499-.1h-.723v1.706h.343v-.713h.067a.458.458 0 0 1 .213.038c.05.031.092.074.121.125l.372.542h.41l-.208-.334a1.188 1.188 0 0 0-.378-.41zm-.346-.235h-.254v-.429h.27a.873.873 0 0 1 .348.041.214.214 0 0 1 .075.177c-.002.033-.011.066-.026.095s-.038.055-.065.074a.978.978 0 0 1-.348.041zM76.917 57.885h.85v-.29h-.85v-.374h.917v-.29h-1.263v1.706h1.295v-.29h-.95v-.461z"/>
    </symbol>
    <symbol id="company3" viewBox="0 0 113 64">
      <path d="M38.833 52.375a.134.134 0 0 1 .09.036l.233.222a1.92 1.92 0 0 1-.654.422c-.293.107-.61.159-.928.152a2.476 2.476 0 0 1-.873-.142 1.922 1.922 0 0 1-.657-.399 1.798 1.798 0 0 1-.425-.617 2.038 2.038 0 0 1-.148-.791c-.004-.271.05-.54.16-.794.102-.23.255-.439.451-.617.199-.174.436-.311.698-.402a2.72 2.72 0 0 1 .899-.142c.285-.006.569.038.835.129.23.087.442.207.625.356l-.195.238a.185.185 0 0 1-.049.043.133.133 0 0 1-.078.018.2.2 0 0 1-.084-.025l-.105-.063-.145-.081a1.651 1.651 0 0 0-.46-.141 2 2 0 0 0-.346-.025 1.903 1.903 0 0 0-.646.106 1.483 1.483 0 0 0-.506.298 1.378 1.378 0 0 0-.329.475 1.596 1.596 0 0 0-.119.627 1.63 1.63 0 0 0 .119.637 1.4 1.4 0 0 0 .323.473c.133.128.298.229.483.293.19.068.394.103.599.101.119.002.237-.005.355-.02a1.396 1.396 0 0 0 .768-.326.18.18 0 0 1 .111-.04zM45.551 51.257a1.93 1.93 0 0 1-.157.786c-.095.228-.244.436-.438.61s-.428.311-.687.401a2.827 2.827 0 0 1-1.768 0 2.023 2.023 0 0 1-.683-.402 1.783 1.783 0 0 1-.442-.617 2.054 2.054 0 0 1 0-1.574c.099-.23.249-.44.442-.619.195-.168.427-.3.683-.387a2.785 2.785 0 0 1 1.768 0c.258.091.492.228.686.402.191.176.341.383.439.609.108.253.161.521.157.791zm-.61 0a1.656 1.656 0 0 0-.111-.632 1.31 1.31 0 0 0-.311-.473 1.37 1.37 0 0 0-.491-.298 2.046 2.046 0 0 0-1.285 0 1.382 1.382 0 0 0-.492.298 1.261 1.261 0 0 0-.314.473 1.855 1.855 0 0 0 0 1.264 1.302 1.302 0 0 0 .806.769 2.09 2.09 0 0 0 1.285 0 1.38 1.38 0 0 0 .491-.296c.139-.138.245-.298.311-.473.078-.204.115-.417.111-.632zM50.135 51.92l.061.142a3.85 3.85 0 0 1 .067-.142 1.18 1.18 0 0 1 .076-.139l1.486-2.347c.029-.04.055-.066.084-.073a.42.42 0 0 1 .122-.013h.439v3.818h-.521V50.24a.954.954 0 0 1 0-.131l-1.495 2.38c-.019.036-.049.066-.088.087s-.082.032-.128.032h-.084c-.045.001-.09-.01-.128-.031s-.069-.051-.087-.087l-1.538-2.395v3.064h-.503v-3.81h.439a.384.384 0 0 1 .122.013.161.161 0 0 1 .081.073l1.518 2.35c.03.043.055.089.076.136zM55.727 51.73v1.43h-.582v-3.813h1.297a2.79 2.79 0 0 1 .724.083c.188.046.363.127.512.238a.98.98 0 0 1 .291.374c.069.156.102.321.099.488a1.062 1.062 0 0 1-.422.87 1.484 1.484 0 0 1-.515.253 2.425 2.425 0 0 1-.701.088l-.704-.01zm0-.409h.704c.153.002.305-.018.451-.058a.99.99 0 0 0 .326-.164.735.735 0 0 0 .268-.574c.007-.106-.013-.212-.058-.311s-.115-.188-.203-.26a1.248 1.248 0 0 0-.782-.205h-.704v1.572zM63.545 53.165h-.459a.219.219 0 0 1-.128-.035.245.245 0 0 1-.076-.088l-.395-.922h-1.986l-.41.922a.22.22 0 0 1-.204.124h-.459l1.745-3.818h.605l1.768 3.818zm-2.88-1.417h1.64l-.692-1.554a2.492 2.492 0 0 1-.131-.359l-.067.2c-.02.061-.044.116-.064.162l-.686 1.552zM66.057 49.365c.035.017.065.04.087.068l2.545 2.878V49.347h.521v3.818h-.291a.284.284 0 0 1-.119-.023.31.31 0 0 1-.093-.071l-2.542-2.876a.954.954 0 0 1 0 .131v2.837h-.521v-3.818h.308a.267.267 0 0 1 .105.018zM73.497 51.647v1.516h-.582v-1.516l-1.608-2.299h.521a.208.208 0 0 1 .125.033.356.356 0 0 1 .079.086l1.006 1.483a1.736 1.736 0 0 1 .178.339l.076-.164c.028-.06.061-.118.099-.174l.992-1.493a.387.387 0 0 1 .076-.081.194.194 0 0 1 .125-.038h.526l-1.611 2.31zM49.847 42.94c.253.028.509.051.768.071 3.924-1.525 7.244-4.022 9.544-7.177s3.479-6.83 3.389-10.564l-4.325-3.757c.879 3.976.468 8.086-1.188 11.87s-4.491 7.094-8.188 9.558z"/>
      <path d="m48.303 42.765.116.02c3.951-2.455 6.963-5.884 8.647-9.842s1.962-8.265.799-12.363l-6.16-5.352c2.491 4.399 3.494 9.322 2.892 14.197s-2.785 9.501-6.294 13.34zM69.192 29.682c-1.046 4.103-3.588 7.803-7.247 10.552a23.114 23.114 0 0 1-3.443 2.148c2.98-.761 5.718-2.106 8.005-3.932s4.06-4.084 5.184-6.599l-2.498-2.168z"/>
      <path d="m68.212 29.077-3.557-3.09c-.068 3.523-1.221 6.967-3.339 9.972s-5.123 5.463-8.704 7.117h.017c.798 0 1.595-.042 2.388-.124 3.347-1.187 6.303-3.075 8.605-5.496s3.879-5.3 4.589-8.379zM48.817 12.972 44.574 9.28c-3.793 1.274-7.056 3.512-9.36 6.424s-3.544 6.359-3.555 9.892c.014 3.904 1.527 7.693 4.298 10.766s6.643 5.256 11.002 6.202c3.892-4.119 6.17-9.21 6.504-14.531s-1.293-10.597-4.646-15.06zM78.016 28.509c-.015-4.632-2.14-9.07-5.91-12.346s-8.878-5.121-14.209-5.135a22.602 22.602 0 0 0-7.204 1.165l25.979 22.572a15.326 15.326 0 0 0 1.344-6.256z"/>
    </symbol>
    <symbol id="company4" viewBox="0 0 113 64">
      <path d="M25.756 22.51h-.003c-2.558 0-4.631 1.843-4.631 4.116v.003c0 2.273 2.074 4.116 4.631 4.116h.003c2.558 0 4.631-1.843 4.631-4.116v-.003c0-2.273-2.074-4.116-4.631-4.116zM59.941 21.194c-.007-3.157-1.422-6.184-3.933-8.416s-5.917-3.491-9.47-3.498c-3.554.006-6.96 1.263-9.473 3.496s-3.928 5.26-3.936 8.418v17.411s26.809-2.654 26.812-17.408v-.003zM11.733 44.319c.006 2.197.991 4.302 2.739 5.856s4.116 2.429 6.588 2.436c2.471-.007 4.84-.882 6.587-2.435s2.733-3.658 2.74-5.854V32.207s-18.654 1.848-18.654 12.112zm9.328 2.171c-.483 0-.955-.127-1.357-.366s-.715-.578-.899-.974c-.185-.397-.233-.833-.139-1.254s.327-.808.668-1.111c.342-.304.777-.51 1.251-.594s.965-.041 1.411.123c.446.164.828.443 1.096.799s.412.777.412 1.206c.001.286-.061.569-.183.833s-.302.505-.529.707c-.227.202-.497.363-.794.473s-.615.166-.937.166v-.008zM39.912 45.295h-1.8v1.859h-.938v-4.55h2.962v.759h-2.025v1.175h1.8v.756zm4.506-.313c0 .448-.079.841-.238 1.178s-.385.598-.681.781a1.876 1.876 0 0 1-1.013.275c-.377 0-.714-.091-1.009-.272s-.525-.44-.687-.775a2.684 2.684 0 0 1-.247-1.163v-.225c0-.448.08-.842.241-1.181.163-.342.391-.603.684-.784.296-.183.633-.275 1.013-.275s.716.092 1.009.275c.296.181.524.443.684.784.162.34.244.732.244 1.178v.203zm-.95-.206c0-.477-.085-.84-.256-1.087s-.415-.372-.731-.372a.834.834 0 0 0-.728.369c-.171.244-.257.602-.259 1.075v.222c0 .465.085.825.256 1.081s.417.384.737.384c.315 0 .556-.123.725-.369.169-.248.254-.608.256-1.081v-.222zm3.991 1.184a.476.476 0 0 0-.188-.406c-.125-.096-.35-.196-.675-.3a4.772 4.772 0 0 1-.772-.313c-.517-.279-.775-.655-.775-1.128 0-.246.069-.465.206-.656.14-.194.339-.345.597-.453.26-.108.552-.162.875-.162.325 0 .615.059.869.178.254.117.451.282.591.497.142.215.212.458.212.731h-.938c0-.208-.066-.37-.197-.484-.131-.117-.316-.175-.553-.175-.229 0-.407.049-.534.147a.455.455 0 0 0-.191.381c0 .148.074.272.222.372.15.1.37.194.659.281.533.16.922.359 1.166.597s.366.533.366.887c0 .394-.149.703-.447.928-.298.223-.699.334-1.203.334-.35 0-.669-.064-.956-.191a1.534 1.534 0 0 1-.659-.528 1.355 1.355 0 0 1-.225-.775h.941c0 .502.3.753.9.753.223 0 .397-.045.522-.134a.447.447 0 0 0 .188-.381zm5.003-2.597h-1.394v3.791h-.938v-3.791h-1.375v-.759h3.706v.759zm3.275 1.819h-1.8v1.219h2.113v.753H53v-4.55h3.044v.759h-2.106v1.084h1.8v.734zm2.547.306h-.747v1.666h-.938v-4.55h1.691c.538 0 .952.12 1.244.359s.437.578.437 1.016c0 .31-.068.57-.203.778a1.368 1.368 0 0 1-.609.494l.984 1.859v.044h-1.006l-.853-1.666zm-.747-.759h.756c.235 0 .418-.059.547-.178.129-.121.194-.286.194-.497 0-.215-.061-.383-.184-.506-.121-.123-.307-.184-.559-.184h-.753v1.366zm5.681.822v1.603h-.938v-4.55h1.775c.342 0 .642.063.9.188.26.125.46.303.6.534.139.229.209.491.209.784 0 .446-.153.798-.459 1.056-.304.256-.726.384-1.266.384h-.822zm0-.759h.837c.248 0 .436-.058.566-.175.131-.117.197-.283.197-.5 0-.223-.066-.403-.197-.541s-.313-.208-.544-.212h-.859v1.428zm5.932.39h-1.8v1.219h2.113v.753h-3.05v-4.55h3.044v.759h-2.106v1.084h1.8v.734zm4.35-1.819h-1.394v3.791h-.938v-3.791h-1.375v-.759h3.706v.759zm3.275 1.819h-1.8v1.219h2.112v.753h-3.05v-4.55h3.044v.759h-2.106v1.084h1.8v.734zm2.547.306h-.747v1.666h-.938v-4.55h1.691c.537 0 .952.12 1.244.359s.438.578.438 1.016c0 .31-.068.57-.203.778-.133.206-.337.371-.609.494l.984 1.859v.044h-1.006l-.853-1.666zm-.747-.759h.756c.235 0 .418-.059.547-.178.129-.121.194-.286.194-.497 0-.215-.061-.383-.184-.506-.121-.123-.307-.184-.559-.184h-.753v1.366zm5.509 1.231a.476.476 0 0 0-.188-.406c-.125-.096-.35-.196-.675-.3a4.772 4.772 0 0 1-.772-.313c-.517-.279-.775-.655-.775-1.128 0-.246.069-.465.206-.656.139-.194.338-.345.597-.453.26-.108.552-.162.875-.162.325 0 .615.059.869.178.254.117.451.282.591.497.142.215.213.458.213.731h-.938c0-.208-.066-.37-.197-.484-.131-.117-.316-.175-.553-.175-.229 0-.407.049-.534.147a.455.455 0 0 0-.191.381c0 .148.074.272.222.372.15.1.37.194.659.281.533.16.922.359 1.166.597s.366.533.366.887c0 .394-.149.703-.447.928-.298.223-.699.334-1.203.334-.35 0-.669-.064-.956-.191a1.528 1.528 0 0 1-.659-.528 1.355 1.355 0 0 1-.225-.775h.941c0 .502.3.753.9.753.223 0 .397-.045.522-.134a.447.447 0 0 0 .188-.381z"/>
    </symbol>
    <symbol id="company5" viewBox="0 0 113 64">
      <path d="M28.541 47.718c.26.295.398.663.391 1.042.013.247-.034.494-.139.721s-.264.431-.467.595c-.505.349-1.13.52-1.762.481h-3.097v-6.604h3.034a2.77 2.77 0 0 1 1.681.439c.196.15.351.34.453.554s.148.448.135.681c.018.364-.107.722-.352 1.01a1.679 1.679 0 0 1-.923.516c.411.069.782.269 1.046.565zm-3.633-.997h1.297c.295.02.587-.058.825-.219.097-.081.173-.181.221-.293s.068-.232.057-.352c.009-.119-.011-.239-.058-.351s-.122-.212-.217-.294a1.342 1.342 0 0 0-.849-.223h-1.276v1.733zm2.248 2.532c.104-.083.186-.186.239-.303s.076-.242.067-.368c.008-.127-.016-.255-.071-.372s-.137-.222-.243-.305a1.43 1.43 0 0 0-.881-.239h-1.36v1.816h1.378c.31.016.617-.064.87-.229zM34.742 50.557l-1.688-2.581h-.634v2.581h-1.452v-6.604h2.748a2.881 2.881 0 0 1 1.913.561c.384.358.616.831.653 1.332s-.122.998-.449 1.401a2.286 2.286 0 0 1-1.311.671l1.797 2.639H34.74zm-2.322-3.482h1.187c.825 0 1.237-.333 1.237-1 .008-.136-.014-.272-.066-.4s-.133-.244-.237-.342a1.37 1.37 0 0 0-.934-.268h-1.202l.014 2.01zM42.678 49.227h-2.893l-.511 1.329h-1.522l2.657-6.53h1.646l2.646 6.53h-1.522l-.5-1.329zm-.388-1-1.057-2.788-1.057 2.788h2.114zM52.611 50.557H51.17l-3.231-4.491v4.491h-1.438v-6.604h1.438l3.231 4.517v-4.517h1.441v6.604zM60.835 48.976a3.004 3.004 0 0 1-1.304 1.165 4.574 4.574 0 0 1-2.026.416H54.94v-6.604h2.565a4.66 4.66 0 0 1 2.026.407 2.958 2.958 0 0 1 1.304 1.152c.297.537.451 1.131.451 1.733s-.155 1.195-.451 1.733zm-1.649-.158c.411-.439.637-.998.637-1.576s-.226-1.137-.637-1.576a2.654 2.654 0 0 0-1.804-.561h-1.001v4.275h1.001a2.654 2.654 0 0 0 1.804-.561zM43.58 7.218s18.601 6.43 18.207 15.735v15.738s-18.587-6.433-18.2-15.738L43.58 7.218zM78.358 35.006c3.513-2.214 7.577-3.585 11.818-3.988v-4.927c-4.887 1.725-9.034 4.852-11.818 8.914z"/>
      <path d="M76.247 36.49c2.875-5.301 7.86-9.392 13.929-11.431V10.863s-26.491 9.159-25.93 22.41V55.68s1.18-.41 3.037-1.178c0-.716 0-1.439.085-2.165.548-6.151 3.742-11.852 8.879-15.848z"/>
      <path d="M73.728 44.814c.139-1.554.45-3.091.927-4.588-3.199 3.451-5.136 7.733-5.539 12.244-.039.426-.06.852-.07 1.291a79.317 79.317 0 0 0 5.095-2.458 21.28 21.28 0 0 1-.412-6.488zM74.781 44.895a20.333 20.333 0 0 0 .328 5.875c7.238-3.965 15.37-10.092 15.056-17.496v-.645c-5.171.53-10.009 2.599-13.77 5.891a20.524 20.524 0 0 0-1.614 6.375z"/>
    </symbol>
    <symbol id="company6" viewBox="0 0 113 64">
      <path d="M56.987 29.235a3.14 3.14 0 0 1-.645-2.121v-3.075c0-.943.214-1.659.641-2.149s1.162-.734 2.203-.732c.978 0 1.673.209 2.084.626.448.532.666 1.183.616 1.84v.723h-1.75v-.732a3.735 3.735 0 0 0-.051-.716.69.69 0 0 0-.25-.425 1.016 1.016 0 0 0-.634-.166 1.076 1.076 0 0 0-.667.175.824.824 0 0 0-.29.469c-.05.251-.073.506-.069.76v3.732c-.028.36.05.72.225 1.048.087.111.208.199.349.254s.298.076.452.059a.955.955 0 0 0 .62-.169.752.752 0 0 0 .261-.454c.041-.248.059-.498.054-.748v-.757h1.75v.691a2.813 2.813 0 0 1-.605 1.933c-.402.457-1.087.685-2.095.685s-1.768-.244-2.2-.751zM64.274 29.267c-.442-.479-.663-1.176-.663-2.099v-3.235c0-.913.221-1.605.663-2.074s1.181-.703 2.218-.701c1.029 0 1.765.234 2.207.701.442.469.667 1.161.667 2.074v3.235c0 .913-.225 1.614-.674 2.096s-1.181.723-2.2.723c-1.018 0-1.772-.244-2.218-.72zm3.033-.776c.158-.3.23-.628.21-.957v-3.961a1.764 1.764 0 0 0-.207-.939c-.089-.113-.213-.203-.357-.258s-.305-.074-.462-.055c-.157-.019-.317 0-.463.056s-.27.144-.36.257a1.717 1.717 0 0 0-.21.939v3.98c-.022.329.05.658.21.957.102.101.228.182.369.237a1.244 1.244 0 0 0 .9 0c.142-.055.267-.136.369-.237v-.019zM71.47 21.252h1.884l1.417 5.969 1.45-5.969h1.834l.185 8.615h-1.355l-.145-5.987-1.399 5.987h-1.087l-1.45-6.009-.134 6.009H71.3l.17-8.615zM80.352 21.252h2.935c1.691 0 2.537.815 2.537 2.446 0 1.562-.89 2.342-2.671 2.34h-1v3.829h-1.812l.011-8.615zm2.508 3.682c.179.02.361.005.533-.042s.33-.126.464-.23c.208-.291.299-.633.261-.973.01-.263-.02-.526-.087-.782-.026-.086-.071-.166-.133-.236s-.14-.129-.229-.173a1.888 1.888 0 0 0-.808-.138h-.703v2.575h.703zM88.437 21.252h1.946l1.997 8.615h-1.689l-.395-1.986H88.56l-.406 1.986H86.44l1.997-8.615zm1.663 5.631-.678-3.616-.678 3.616h1.355zM93.992 21.252h1.268l2.428 4.914v-4.914h1.504v8.615h-1.207l-2.442-5.13v5.13h-1.555l.004-8.615zM102.714 26.582l-2.018-5.318h1.7l1.232 3.416 1.156-3.416h1.663l-1.993 5.318v3.285h-1.739v-3.285zM59.784 33.634v.451h-1.478v3.501h-.62v-3.501H56.2v-.451h3.584zM64.419 37.585h-.478a.209.209 0 0 1-.134-.038.206.206 0 0 1-.08-.091l-.428-.939h-2.051l-.428.939a.257.257 0 0 1-.065.106.23.23 0 0 1-.134.038h-.478l1.812-3.951h.631l1.834 3.935zm-3.001-1.467h1.711l-.725-1.608a3.007 3.007 0 0 1-.134-.372c-.025.075-.047.147-.069.21l-.065.166-.718 1.605zM67.543 37.197c.114.005.227.005.341 0 .098-.009.195-.024.29-.047.089-.019.176-.043.261-.072.08-.028.159-.063.243-.097v-.889h-.725c-.018.001-.036-.001-.053-.007s-.032-.014-.045-.024c-.012-.009-.021-.02-.028-.032s-.009-.026-.009-.04v-.303h1.406V37.2a2.755 2.755 0 0 1-.764.323c-.148.038-.3.065-.453.081a5.493 5.493 0 0 1-.529.025 2.777 2.777 0 0 1-.913-.147 2.236 2.236 0 0 1-.725-.413 1.892 1.892 0 0 1-.467-.626 1.98 1.98 0 0 1-.167-.82 2.036 2.036 0 0 1 .163-.826 1.82 1.82 0 0 1 .467-.626c.207-.178.453-.317.725-.41.31-.101.64-.151.971-.147.169 0 .337.011.504.034a2.5 2.5 0 0 1 .431.1c.127.041.248.094.362.156.111.062.217.131.315.206l-.174.244c-.014.022-.034.041-.059.054s-.053.02-.083.021a.238.238 0 0 1-.112-.031 2.285 2.285 0 0 1-.178-.094 1.553 1.553 0 0 0-.243-.106 2.329 2.329 0 0 0-.333-.088 2.725 2.725 0 0 0-.46-.034 2.166 2.166 0 0 0-.699.109c-.202.07-.383.177-.533.313-.15.142-.265.309-.337.491a1.845 1.845 0 0 0 0 1.317c.079.186.203.355.362.498.149.136.329.242.529.313.23.068.475.095.717.078zM73.319 37.135h1.979v.45h-2.584v-3.951h.62l-.014 3.501zM77.356 37.585h-.62v-3.951h.62v3.951zM79.66 33.653a.294.294 0 0 1 .094.072l2.649 2.978a.83.83 0 0 1 0-.141v-2.944h.54v3.967h-.312a.29.29 0 0 1-.134-.022.35.35 0 0 1-.098-.075l-2.645-2.975v3.073h-.518v-3.952h.323c.035 0 .07.007.101.019zM87.505 33.634v.435h-2.196v1.305h1.779v.419h-1.779v1.348h2.196v.435h-2.834v-3.942h2.834zM22.573 9.233l27.515 6.745v23.635l-27.515-6.742V9.233zm-1.765-2.015v26.801l31.041 7.611V14.832L20.808 7.217z"/>
      <path d="M37.444 54.072 6.4 46.454V19.656l31.044 7.615v26.801zM21.322 8.929l27.156 6.66-11.549 9.973-27.16-6.663 11.552-9.97zm-.514-1.711L6.4 19.656l31.044 7.614 14.404-12.438-31.041-7.614zM39.191 52.564l12.657-10.93-12.657-3.106v14.037z"/>
    </symbol>
    <symbol id="envelope" viewBox="0 0 85 64">
      <path d="M77.333 0H8C3.588 0 0 3.589 0 8v48c0 4.411 3.589 8 8 8h69.333c4.411 0 8-3.589 8-8V8c0-4.412-3.589-8-8-8zm0 5.333c.362 0 .707.075 1.022.206L42.666 36.471 6.977 5.539c.315-.131.66-.206 1.022-.206h69.333zm0 53.334H8A2.669 2.669 0 0 1 5.333 56V11.174l35.586 30.841c.503.435 1.125.651 1.747.651s1.245-.216 1.747-.651l35.586-30.841V56a2.669 2.669 0 0 1-2.667 2.667z"/>
    </symbol>
    <symbol id="facebook" viewBox="0 0 64 64">
      <path d="M42.659 10.627h5.843V.451C47.494.312 44.027 0 39.99 0c-8.424 0-14.195 5.299-14.195 15.037V24h-9.296v11.376h9.296V64h11.397V35.379h8.92l1.416-11.376H37.189v-7.837c.003-3.288.888-5.539 5.469-5.539z"/>
    </symbol>
    <symbol id="instagram" viewBox="0 0 64 64">
      <path d="M63.937 18.816c-.15-3.401-.7-5.738-1.487-7.764a15.63 15.63 0 0 0-3.701-5.676 15.747 15.747 0 0 0-5.664-3.688C51.048.9 48.722.35 45.321.2 41.895.037 40.807 0 32.118 0s-9.777.038-13.19.188c-3.401.15-5.738.7-7.764 1.488a15.614 15.614 0 0 0-5.676 3.701A15.747 15.747 0 0 0 1.8 11.041C1.012 13.079.462 15.404.312 18.805c-.163 3.426-.2 4.514-.2 13.203S.15 41.785.3 45.198c.15 3.4.7 5.738 1.488 7.764a15.798 15.798 0 0 0 3.7 5.676 15.747 15.747 0 0 0 5.664 3.688c2.038.788 4.363 1.338 7.764 1.487 3.413.15 4.501.188 13.19.188s9.777-.037 13.19-.188c3.401-.15 5.738-.7 7.764-1.487a16.373 16.373 0 0 0 9.365-9.364c.787-2.038 1.338-4.364 1.488-7.764.15-3.413.188-4.501.188-13.19s-.013-9.777-.163-13.19zm-5.763 26.13c-.138 3.126-.663 4.813-1.1 5.939a10.617 10.617 0 0 1-6.077 6.077c-1.125.438-2.825.963-5.939 1.1-3.376.15-4.388.188-12.927.188s-9.564-.037-12.928-.188c-3.126-.137-4.813-.662-5.939-1.1a9.848 9.848 0 0 1-3.675-2.388 9.952 9.952 0 0 1-2.388-3.675c-.438-1.125-.963-2.826-1.1-5.939-.15-3.376-.188-4.389-.188-12.928s.037-9.564.188-12.927c.137-3.126.662-4.813 1.1-5.939A9.726 9.726 0 0 1 9.602 9.49a9.944 9.944 0 0 1 3.675-2.388c1.125-.438 2.826-.963 5.939-1.1 3.376-.15 4.389-.188 12.927-.188 8.552 0 9.564.038 12.928.188 3.126.138 4.813.663 5.939 1.1a9.835 9.835 0 0 1 3.675 2.388 9.96 9.96 0 0 1 2.388 3.676c.437 1.125.963 2.825 1.1 5.939.15 3.376.188 4.388.188 12.927s-.037 9.54-.188 12.915z"/>
      <path d="M32.119 15.565c-9.076 0-16.441 7.364-16.441 16.441s7.364 16.441 16.441 16.441c9.077 0 16.441-7.364 16.441-16.441s-7.364-16.441-16.441-16.441zm0 27.106c-5.888 0-10.665-4.776-10.665-10.665s4.776-10.665 10.665-10.665c5.889 0 10.665 4.776 10.665 10.665s-4.776 10.665-10.665 10.665zM53.048 14.915a3.838 3.838 0 1 1-7.675 0 3.838 3.838 0 0 1 7.675 0z"/>
    </symbol>
    <symbol id="linkedin" viewBox="0 0 64 64">
      <path d="M63.984 64v-.003H64V40.525c0-11.483-2.472-20.328-15.896-20.328-6.453 0-10.784 3.541-12.552 6.899h-.187v-5.827H22.637v42.728H35.89V42.84c0-5.571 1.056-10.957 7.955-10.957 6.797 0 6.899 6.357 6.899 11.315v20.803h13.24zM1.056 21.272h13.269V64H1.056V21.272zM7.685 0C3.442 0 0 3.443 0 7.685s3.443 7.757 7.685 7.757c4.243 0 7.685-3.515 7.685-7.757C15.367 3.442 11.925 0 7.685 0z"/>
    </symbol>
    <symbol id="smartphone" viewBox="0 0 40 64">
      <path d="M34 0H6C2.691 0 0 2.691 0 6v52c0 3.309 2.691 6 6 6h28c3.309 0 6-2.691 6-6V6c0-3.309-2.691-6-6-6zM6 4h28c1.103 0 2 .896 2 2v42H4V6a2 2 0 0 1 2-2zm28 56H6a2 2 0 0 1-2-2v-6h32v6c0 1.104-.897 2-2 2z"/>
      <path d="M9.414 54.956c.781.73.781 1.912 0 2.641s-2.047.73-2.828 0c-.781-.729-.781-1.912 0-2.641s2.047-.729 2.828 0z"/>
    </symbol>
    <symbol id="twitter" viewBox="0 0 64 64">
      <path d="M64 12.156a27.355 27.355 0 0 1-7.56 2.072 13.047 13.047 0 0 0 5.772-7.252 26.22 26.22 0 0 1-8.32 3.176A13.148 13.148 0 0 0 44.308 6c-7.264 0-13.112 5.896-13.112 13.124 0 1.04.088 2.04.304 2.992-10.908-.532-20.56-5.76-27.044-13.724-1.132 1.964-1.796 4.212-1.796 6.632 0 4.544 2.34 8.572 5.828 10.904-2.108-.04-4.176-.652-5.928-1.616v.144c0 6.376 4.548 11.672 10.512 12.892-1.068.292-2.232.432-3.44.432-.84 0-1.688-.048-2.484-.224 1.7 5.196 6.524 9.016 12.26 9.14A26.363 26.363 0 0 1 3.14 52.292c-1.076 0-2.108-.048-3.14-.18C5.812 55.86 12.7 58 20.128 58c24.144 0 37.344-20 37.344-37.336 0-.58-.02-1.14-.048-1.696 2.604-1.848 4.792-4.156 6.576-6.812z"/>
    </symbol>
  </defs>
</svg>
